<?xml version="1.0" encoding="utf-8"?>
<!-- Generator: Adobe Illustrator 19.0.0, SVG Export Plug-In . SVG Version: 6.00 Build 0)  -->
<svg version="1.1" id="Layer_1" xmlns="http://www.w3.org/2000/svg" xmlns:xlink="http://www.w3.org/1999/xlink" x="0px" y="0px"
	 viewBox="-53 230.7 792 441.3" style="enable-background:new -53 230.7 792 441.3;" xml:space="preserve">
<style type="text/css">
	.st0{fill:#FFFFFF;}
	.st1{fill:#88C045;}
	.st2{fill:#ED0090;}
	.st3{fill:#F29814;}
	.st4{fill:#567442;}
	.st5{fill:#A31221;}
</style>
<g>
	<rect x="-53" y="230.3" class="st0" width="790.6" height="441.7"/>
	<g>
		<path class="st1" d="M192.8,479.2c40,13.5,27.6,53.6,62.5,65.3L574.4,652c63.2,21.3,81.8-40.6,142.3-20.3c9,3,17.1,7.5,24.2,13.1
			v27.1H513.2l-268.8-90.4c-36.2-12.2-51,23.5-89.5,10.5c-31.1-10.5-47.9-44.3-37.4-75.4C127.9,485.5,161.7,468.8,192.8,479.2z"/>
		<path class="st2" d="M620.2,672l-39.5-220.3c-12-67.2-76.7-53.3-88.2-117.7c-8-44.4,21.6-86.9,66.1-94.9
			c44.4-8,86.9,21.6,94.9,66.1C664.3,365.8,608,379.8,620,447l40.3,224.9L620.2,672L620.2,672z"/>
		<path class="st3" d="M741,304c-27.8,13.8-53.4-7.8-78.2,14.2L404.7,546.3c-47,41.5-12.5,85.4-44.4,125.8H231.6
			c-26.6-33.8-22.5-82.9,10.1-111.8c46.1-40.7,87.4,0.2,138.6-45.1l255.3-225.6c20.5-18.2,14.9-39,20.3-59.3h85L741,304L741,304z"/>
		<path class="st4" d="M379.8,586.5l-117.6-39.6c-6.8,3-13.6,7.3-20.5,13.4c-6.3,5.6-11.6,12-15.8,18.8c5.6-0.4,11.6,0.2,18.4,2.5
			l131.6,44.3C376.9,612.8,376.7,599.6,379.8,586.5z"/>
		<path class="st5" d="M527.1,385.4c10.8,7.7,22.4,14.5,32.2,24.2l95.4-84.3c0.4-6.1,0.1-12.7-1.2-20c-1.7-9.3-4.8-17.9-9.2-25.6
			c-2.2,3.4-5,6.7-8.7,9.9L527.1,385.4z"/>
		<path class="st5" d="M654.2,638.4c-12,5.9-23.6,12.7-37.2,16.1l3.1,17.6h40.1L654.2,638.4z"/>
	</g>
	<g>
		<path class="st1" d="M79.9,418.4c0.4-12.2,12.5-12,12.9-22.7l3.5-97c0.7-19.2-18-19.3-17.3-37.7c0.5-12.7,11.1-22.7,23.9-22.2
			c12.7,0.5,22.7,11.1,22.2,23.9c-0.6,17.3-17,17.8-17.7,37.1l-3.5,96c-0.4,11,10.7,12.2,10.3,23.9c-0.3,9.5-8.3,16.9-17.8,16.5
			C86.9,435.8,79.5,427.9,79.9,418.4z"/>
		<path class="st2" d="M155.8,269.2c-11.1,5.6-17-5.3-26.7-0.4l-88.7,44.6c-17.6,8.8-8.4,25.6-25.3,34.1
			c-11.6,5.9-25.8,1.2-31.7-10.5c-5.9-11.6-1.2-25.8,10.5-31.7c15.8-8,24.4,6.5,41.9-2.4l87.8-44.2c10.1-5.1,5.7-15.6,16.4-21
			c8.7-4.4,19.2-0.9,23.6,7.8C168,254.3,164.5,264.9,155.8,269.2z"/>
		<path class="st3" d="M-16.8,278.7c10.6,6.6,4.3,17.3,13.5,23L81,354.3c16.7,10.4,26.2-6.1,42.2,3.9c11,6.9,14.4,21.4,7.5,32.5
			c-6.9,11-21.4,14.4-32.5,7.5c-15-9.4-7.1-24.2-23.8-34.6l-83.3-52c-9.6-6-16.2,3.3-26.4-3.1c-8.2-5.1-10.7-16-5.6-24.2
			C-35.8,276.1-25,273.6-16.8,278.7z"/>
		<path class="st4" d="M94.2,357.9l-1.3,35.8c1.4,1.6,3.1,3.1,5.4,4.6c2.1,1.3,4.3,2.2,6.5,2.8c-0.6-1.5-0.9-3.2-0.8-5.3l1.4-40
			C101.7,356.6,98,357.7,94.2,357.9z"/>
		<path class="st5" d="M26.5,333.7c1.2-3.6,2.2-7.4,4-10.9l-31.1-19.4c-1.7,0.4-3.5,1-5.4,2c-2.4,1.2-4.5,2.8-6.3,4.6
			c1.1,0.3,2.3,0.8,3.4,1.6L26.5,333.7z"/>
		<path class="st5" d="M86,277.8c2.6,2.8,5.5,5.5,7.5,9l29.2-14.7c1.3-2.6,2.2-5.5,2.3-9.3c0.1-1.5,0-3-0.3-4.5
			c-0.4,0.2-0.7,0.4-1.1,0.6L86,277.8z"/>
	</g>
	<path class="st0" d="M214.2,542.6c0-9,3.9-17.9,11.4-23.9c-8,0.5-16-1.7-22.6-6.6c-1.8,6.5-5.6,12.4-11.1,17
		c8.5,1.5,16.5,6,22.2,13.4C214.1,542.5,214.1,542.6,214.2,542.6L214.2,542.6z M378.3,518.4c-10.4,8-25.3,6.1-33.4-4.3
		c-8-10.4-6.1-25.3,4.3-33.4c10.4-8,25.3-6.1,33.4,4.3C390.6,495.4,388.7,510.4,378.3,518.4L378.3,518.4z M419.5,441.2
		c13-10,15.4-28.7,5.3-41.7c-3-3.9-6.8-6.8-11-8.8c5.5-6.3,8.8-14.1,9.7-22.1c12.6,7.5,29.1,7,41.4-2.5c8-6.2,12.8-15,14-24.3
		c11.4,9.3,28.2,9.9,40.4,0.5c14.2-11,16.8-31.4,5.8-45.6c-4.9-6.3-11.6-10.3-18.9-11.9c6.2-6.1,9.8-13.9,10.8-22.1
		c7.2,5.9,16.4,8.6,25.4,7.8c-0.4,0.3-0.8,0.6-1.2,0.9c-13.1,10.1-15.5,29-5.4,42.1c10.1,13.1,29,15.5,42,5.4
		c13.1-10.1,15.5-28.9,5.4-42c-6.3-8.1-15.9-12.1-25.4-11.6c0.8-0.5,1.7-1.1,2.5-1.8c8.6-6.6,13.2-16.5,13.5-26.6
		c7.9,8.8,19.3,12.7,30.4,11.3c-1.1,0.6-2.1,1.3-3.1,2.1c-13.1,10.1-15.5,29-5.4,42.1s29,15.5,42,5.4c8.5-6.6,12.5-16.8,11.5-26.7
		c0.5,0.7,1,1.4,1.5,2.1c7.4,9.6,18.7,14.5,30,14.2c-13,10.7-15.2,29.8-4.9,43.2c7.1,9.2,18.3,13.3,29.1,11.8
		c-1.7,0.9-3.3,1.9-4.8,3.1c-8.6,6.6-13.1,16.5-13.3,26.6c-11.3-12.4-30.4-14.2-43.8-3.8c-14.2,11-16.8,31.3-5.8,45.5
		c5.4,6.9,13,11.1,21,12.3c-5.4,4.8-9,10.9-10.9,17.5c-7.1-5.5-15.8-8.2-24.5-7.8c10.7-10.5,12-27.5,2.7-39.6
		c-10.1-13.1-28.9-15.5-42-5.4s-15.5,28.9-5.4,42c5.6,7.3,13.9,11.2,22.4,11.6c-7.2,6-11.6,14.1-13,22.7c-8.3-6.5-18.9-9.1-29.1-7.5
		c0.4-0.3,0.8-0.6,1.2-0.9c12.1-9.4,14.4-26.9,5-39c-9.4-12.1-26.9-14.4-39-5c-12.2,9.4-14.4,26.9-5,39c6.1,7.9,15.5,11.6,24.7,10.7
		c-1.3,0.8-2.5,1.6-3.7,2.5c-8.9,6.9-13.9,17.1-14.4,27.6c-11.5-12.3-30.7-14-44.3-3.5c-8.6,6.6-13,16.6-12.8,26.7
		c-11.3-13.6-31.5-15.9-45.6-5c-9.7,7.5-14.1,19.3-12.6,30.6c-0.6-1-1.3-2-2.1-3c-10.6-13.8-30.4-16.3-44.2-5.7
		c-10.3,7.9-14.3,21-11.3,32.8c-0.9-1.7-1.9-3.3-3.1-4.8c-10.6-13.8-30.4-16.3-44.2-5.7c-13.8,10.6-16.3,30.4-5.7,44.2
		c6.4,8.3,16.2,12.5,26,12.2c-0.6,0.4-1.1,0.8-1.6,1.2c-7.9,6.1-12.3,14.9-13.1,24.1c-7.6-8.2-18.4-11.9-28.9-10.8
		c0.1-0.1,0.2-0.2,0.3-0.2c13.3-10.3,15.7-29.4,5.5-42.6c-10.3-13.3-29.4-15.7-42.6-5.5c-6.3,4.9-10.2,11.8-11.4,19.1
		c-5.7-6.8-13.3-11-21.5-12.6c5.1-6.8,7.5-15.1,7.1-23.4c10.5,12.4,29,14.4,42,4.4c13.4-10.3,15.8-29.6,5.5-42.9
		c-6.2-8.1-15.7-12.2-25.2-11.9c0.1-0.1,0.3-0.2,0.4-0.3c8.6-6.6,13.1-16.5,13.3-26.5c8.9,10,22.5,13.7,34.8,10.3
		c-2,0.9-4,2.1-5.9,3.5c-12.8,9.9-15.2,28.3-5.3,41.2c9.9,12.8,28.3,15.2,41.2,5.3c12.8-9.9,15.2-28.3,5.3-41.2
		c-7.5-9.7-19.8-13.4-30.8-10.4c2.5-1.1,4.9-2.5,7.2-4.3c9.6-7.4,14.1-18.9,13.1-30.1c0.2,0.2,0.4,0.5,0.5,0.7
		c10.8,13.9,30.8,16.5,44.7,5.7c13.9-10.8,16.5-30.8,5.7-44.7c-3.5-4.5-7.9-7.8-12.9-9.9c2.9-3.6,5.1-7.6,6.7-11.9
		c4.1,2.4,8.5,4,13,4.9c-5,9.9-4.3,22.2,3,31.6C387.8,448.9,406.5,451.3,419.5,441.2L419.5,441.2z M405.9,493.7
		c8,10.4,23,12.3,33.4,4.3s12.3-23,4.3-33.4s-23-12.3-33.4-4.3C399.8,468.3,397.9,483.3,405.9,493.7L405.9,493.7z M463.8,471.9
		c8,10.4,23,12.3,33.4,4.3s12.3-23,4.3-33.4s-23-12.3-33.4-4.3C457.6,446.5,455.7,461.5,463.8,471.9L463.8,471.9z M479.3,419.6
		c11.8-9.1,13.9-26,4.8-37.8c-9.1-11.8-26-14-37.8-4.8c-11.8,9.1-14,26-4.8,37.8C450.6,426.5,467.5,428.7,479.3,419.6L479.3,419.6z
		 M500.2,393.3c9.1,11.8,26,13.9,37.8,4.8c11.8-9.1,13.9-26,4.8-37.8c-9.1-11.8-26-14-37.8-4.8C493.2,364.6,491.1,381.6,500.2,393.3
		L500.2,393.3z M559.6,370.9c9.4,12.1,26.9,14.4,39,5c12.1-9.4,14.4-26.9,5-39c-9.4-12.2-26.9-14.4-39-5
		C552.5,341.2,550.2,358.7,559.6,370.9L559.6,370.9z M618.6,350.5c9.7,12.5,27.7,14.9,40.3,5.2c12.5-9.7,14.8-27.7,5.2-40.3
		c-9.7-12.5-27.7-14.9-40.3-5.2C611.2,319.9,608.9,337.9,618.6,350.5L618.6,350.5z M701.7,280.2c5.6,0.2,11,1.8,15.8,4.8
		c0.9-4.4,2.6-8.6,5-12.5c-3.6-0.8-7.2-2.2-10.5-3.9c-2.3,4.2-5.5,8-9.6,11.1C702.2,279.8,702,280,701.7,280.2L701.7,280.2z
		 M715.9,338.6c5.4-0.9,10.9-0.4,16.1,1.3v-16.8c-0.6-0.4-1.2-0.9-1.7-1.4c-1.9,5.5-5.4,10.5-10.3,14.3
		C718.6,337,717.3,337.9,715.9,338.6L715.9,338.6z M392.5,652.2c-4.2-1.5-8.1-3.8-11.5-6.8c-0.6,5.4-2.6,10.6-5.7,15.1
		c3.6,0.8,7.1,2.2,10.3,4.1C387,660.2,389.4,655.9,392.5,652.2L392.5,652.2z M332.2,672c-3.7-1.8-7.1-4.3-10-7.4
		c-0.2,2.5-0.7,5-1.4,7.4H332.2L332.2,672z M268.1,633.6c-8.6,0.6-17.3-2.4-23.7-8.7c-0.4,6-2.3,11.8-5.5,17
		c6.1,0.9,12,3.2,17.1,6.8c2.2-5.4,5.8-10.3,10.8-14.2C267.3,634.2,267.7,633.9,268.1,633.6L268.1,633.6z M368.4,614.6
		c0.7-9,4.7-17.7,11.8-24.2c-7.6-1.3-14.7-5.3-19.7-11.8c-1.2-1.5-2.2-3.2-3.1-4.8c3,11.8-1,24.9-11.2,32.8
		c-0.3,0.2-0.6,0.5-0.9,0.7C353.4,606.8,361.7,609.3,368.4,614.6L368.4,614.6z M427.3,587.9c1.2-6.4,3.9-12.5,8.1-17.7
		c-6.3-1.9-12.1-5.8-16.4-11.4c-0.9-1.1-1.6-2.2-2.3-3.4c1.1,9-1.7,18.4-8.2,25.3C415.2,581.3,421.7,583.8,427.3,587.9L427.3,587.9z
		 M492.4,548.1c-5.4-1.9-10.3-5.2-14.2-9.9c0.1,6.4-1.7,12.7-5.1,18.2c4.5,0.8,8.9,2.5,12.9,4.9
		C487.3,556.5,489.4,552.1,492.4,548.1L492.4,548.1z M549.4,530.1c-4.8-2.2-9.3-5.5-12.9-9.8c-0.4,4.2-1.7,8.4-3.7,12.2
		c4.5,0.9,8.8,2.5,12.7,4.9C546.5,534.9,547.8,532.4,549.4,530.1L549.4,530.1z M604.7,515.2c1.1-2.9,2.6-5.8,4.4-8.5
		c-2.6-1.2-5.1-2.7-7.4-4.5c-0.6,3.6-1.7,7.1-3.3,10.5C600.6,513.3,602.7,514.2,604.7,515.2L604.7,515.2z M670.6,488.6
		c-3.5-1.3-6.9-3.2-10-5.5c-0.6,2.3-1.5,4.4-2.6,6.6c3.2,1,6.4,2.4,9.3,4.2C668.4,492.1,669.4,490.3,670.6,488.6L670.6,488.6z
		 M729.1,467.8c-3.3-1.2-6.5-2.8-9.5-4.9c-0.8,3-1.9,6-3.5,8.8c3.1,0.8,6.1,1.9,9,3.3C726.3,472.5,727.6,470.1,729.1,467.8
		L729.1,467.8z M715.1,405.9c-7.3-1.4-14.2-5.1-19.4-11.1c-0.3,7.9-3.4,15.6-9.2,21.6c6.7,0.5,13.2,2.8,18.8,6.8
		C706.8,416.8,710.1,410.8,715.1,405.9L715.1,405.9z M630.4,230.3c-2.2,4.1-5.3,7.7-9.2,10.8c-1.5,1.1-3,2.1-4.5,3
		c9.9-1,20.2,3,26.7,11.5c0.1,0.2,0.3,0.4,0.4,0.5c-1.2-8.1,0.3-16.4,4.4-23.6c-2.3-0.5-4.5-1.3-6.7-2.2H630.4L630.4,230.3z
		 M504.4,230.3l0.5,0.4l0.1-0.4H504.4L504.4,230.3z M454.3,301.9c4.9,1.7,9.5,4.3,13.4,8c1.1-5.5,3.7-10.6,7.5-15
		c-5.5-0.8-10.9-2.8-15.6-6.1C458.7,293.5,456.9,297.9,454.3,301.9L454.3,301.9z M291.5,429.4c7.1,1.8,13.7,5.9,18.6,12.2
		c0.3,0.4,0.6,0.9,0.9,1.3c-0.4-5.9,0.8-11.9,3.6-17.2c-5.8-1.2-11.4-3.7-16.3-7.4C296.7,422.3,294.4,426.1,291.5,429.4L291.5,429.4
		z M229.3,451c7.4,1.3,14.3,5,19.6,11c0.1-6.7,2.1-13.2,6-18.8c-5.6-0.8-11.1-2.7-16-5.7C236.7,442.5,233.5,447.1,229.3,451
		L229.3,451z M179,469.8c4.1,1.1,7.9,2.9,11.4,5.5c1.4-4.8,3.8-9.4,7.3-13.3c-4.6-0.4-9.1-1.5-13.4-3.4
		C183.1,462.5,181.4,466.3,179,469.8L179,469.8z M178.2,599.4c-3.5-0.7-6.9-2-10.1-3.8c-0.5,3.2-1.4,6.4-2.7,9.4
		c2.6,0.9,5.1,2.1,7.5,3.7C174.2,605.4,176,602.2,178.2,599.4z"/>
</g>
</svg>
