<?xml version="1.0" encoding="utf-8"?>
<!-- Generator: Adobe Illustrator 19.0.0, SVG Export Plug-In . SVG Version: 6.00 Build 0)  -->
<svg version="1.1" id="Layer_1" xmlns="http://www.w3.org/2000/svg" xmlns:xlink="http://www.w3.org/1999/xlink" x="0px" y="0px"
	 viewBox="0 0 792 441.3" style="enable-background:new 0 0 792 441.3;" xml:space="preserve">
<style type="text/css">
	.st0{fill-rule:evenodd;clip-rule:evenodd;fill:#FFFFFF;}
	.st1{fill-rule:evenodd;clip-rule:evenodd;fill:#88C045;}
	.st2{fill-rule:evenodd;clip-rule:evenodd;fill:#ED0090;}
	.st3{fill-rule:evenodd;clip-rule:evenodd;fill:#F29814;}
	.st4{fill-rule:evenodd;clip-rule:evenodd;fill:#567442;}
	.st5{fill-rule:evenodd;clip-rule:evenodd;fill:#A31221;}
</style>
<g>
	<rect y="-0.4" class="st0" width="790.6" height="441.7"/>
	<g>
		<path class="st1" d="M242.4,248.5c40,13.5,27.6,53.6,62.5,65.3l319.1,107.5c63.2,21.3,81.8-40.6,142.3-20.3
			c9,3,17.1,7.5,24.2,13.1v27.1H562.8L294,350.8c-36.2-12.2-51,23.5-89.5,10.5c-31.1-10.5-47.9-44.3-37.4-75.4
			C177.5,254.8,211.3,238.1,242.4,248.5z"/>
		<path class="st2" d="M669.8,441.3l-39.5-220.3c-12-67.2-76.7-53.3-88.2-117.7c-8-44.4,21.6-86.9,66.1-94.9
			c44.4-8,86.9,21.6,94.9,66.1c10.8,60.6-45.5,74.6-33.5,141.8l40.3,224.9H669.8z"/>
		<path class="st3" d="M790.6,73.3c-27.8,13.8-53.4-7.8-78.2,14.2L454.3,315.6c-47,41.5-12.5,85.4-44.4,125.8H281.2
			c-26.6-33.8-22.5-82.9,10.1-111.8c46.1-40.7,87.4,0.2,138.6-45.1L685.2,58.9c20.5-18.2,14.9-39,20.3-59.3h85V73.3z"/>
		<path class="st4" d="M429.4,355.8l-117.6-39.6c-6.8,3-13.6,7.3-20.5,13.4c-6.3,5.6-11.6,12-15.8,18.8c5.6-0.4,11.6,0.2,18.4,2.5
			l131.6,44.3C426.5,382.1,426.3,368.9,429.4,355.8z"/>
		<path class="st5" d="M576.7,154.7c10.8,7.7,22.4,14.5,32.2,24.2l95.4-84.3c0.4-6.1,0.1-12.7-1.2-20c-1.7-9.3-4.8-17.9-9.2-25.6
			c-2.2,3.4-5,6.7-8.7,9.9L576.7,154.7z"/>
		<path class="st5" d="M703.8,407.7c-12,5.9-23.6,12.7-37.2,16.1l3.1,17.6h40.1L703.8,407.7z"/>
	</g>
	<g>
		<path class="st1" d="M132.9,187.7c0.4-12.2,12.5-12,12.9-22.7l3.5-97c0.7-19.2-18-19.3-17.3-37.7c0.5-12.7,11.1-22.7,23.9-22.2
			c12.7,0.5,22.7,11.1,22.2,23.9c-0.6,17.3-17,17.8-17.7,37.1l-3.5,96c-0.4,11,10.7,12.2,10.3,23.9c-0.3,9.5-8.3,16.9-17.8,16.5
			C139.9,205.1,132.5,197.2,132.9,187.7z"/>
		<path class="st2" d="M208.8,38.5c-11.1,5.6-17-5.3-26.7-0.4L93.4,82.7c-17.6,8.8-8.4,25.6-25.3,34.1c-11.6,5.9-25.8,1.2-31.7-10.5
			c-5.9-11.6-1.2-25.8,10.5-31.7c15.8-8,24.4,6.5,41.9-2.4l87.8-44.2c10.1-5.1,5.7-15.6,16.4-21c8.7-4.4,19.2-0.9,23.6,7.8
			C221,23.6,217.5,34.2,208.8,38.5z"/>
		<path class="st3" d="M36.2,48c10.6,6.6,4.3,17.3,13.5,23l84.3,52.6c16.7,10.4,26.2-6.1,42.2,3.9c11,6.9,14.4,21.4,7.5,32.5
			c-6.9,11-21.4,14.4-32.5,7.5c-15-9.4-7.1-24.2-23.8-34.6l-83.3-52c-9.6-6-16.2,3.3-26.4-3.1c-8.2-5.1-10.7-16-5.6-24.2
			C17.2,45.4,28,42.9,36.2,48z"/>
		<path class="st4" d="M147.2,127.2l-1.3,35.8c1.4,1.6,3.1,3.1,5.4,4.6c2.1,1.3,4.3,2.2,6.5,2.8c-0.6-1.5-0.9-3.2-0.8-5.3l1.4-40
			C154.7,125.9,151,127,147.2,127.2z"/>
		<path class="st5" d="M79.5,103c1.2-3.6,2.2-7.4,4-10.9L52.4,72.7c-1.7,0.4-3.5,1-5.4,2c-2.4,1.2-4.5,2.8-6.3,4.6
			c1.1,0.3,2.3,0.8,3.4,1.6L79.5,103z"/>
		<path class="st5" d="M139,47.1c2.6,2.8,5.5,5.5,7.5,9l29.2-14.7c1.3-2.6,2.2-5.5,2.3-9.3c0.1-1.5,0-3-0.3-4.5
			c-0.4,0.2-0.7,0.4-1.1,0.6L139,47.1z"/>
	</g>
	<path class="st0" d="M272.8,311.9c0-9,3.9-17.9,11.4-23.9c-8,0.5-16-1.7-22.6-6.6c-1.8,6.5-5.6,12.4-11.1,17
		c8.5,1.5,16.5,6,22.2,13.4C272.7,311.8,272.7,311.9,272.8,311.9L272.8,311.9z M436.9,287.7c-10.4,8-25.3,6.1-33.4-4.3
		c-8-10.4-6.1-25.3,4.3-33.4c10.4-8,25.3-6.1,33.4,4.3C449.2,264.7,447.3,279.7,436.9,287.7L436.9,287.7z M478.1,210.5
		c13-10,15.4-28.7,5.3-41.7c-3-3.9-6.8-6.8-11-8.8c5.5-6.3,8.8-14.1,9.7-22.1c12.6,7.5,29.1,7,41.4-2.5c8-6.2,12.8-15,14-24.3
		c11.4,9.3,28.2,9.9,40.4,0.5c14.2-11,16.8-31.4,5.8-45.6c-4.9-6.3-11.6-10.3-18.9-11.9c6.2-6.1,9.8-13.9,10.8-22.1
		c7.2,5.9,16.4,8.6,25.4,7.8c-0.4,0.3-0.8,0.6-1.2,0.9c-13.1,10.1-15.5,29-5.4,42.1c10.1,13.1,29,15.5,42,5.4
		c13.1-10.1,15.5-28.9,5.4-42c-6.3-8.1-15.9-12.1-25.4-11.6c0.8-0.5,1.7-1.1,2.5-1.8c8.6-6.6,13.2-16.5,13.5-26.6
		c7.9,8.8,19.3,12.7,30.4,11.3c-1.1,0.6-2.1,1.3-3.1,2.1c-13.1,10.1-15.5,29-5.4,42.1c10.1,13.1,29,15.5,42,5.4
		c8.5-6.6,12.5-16.8,11.5-26.7c0.5,0.7,1,1.4,1.5,2.1c7.4,9.6,18.7,14.5,30,14.2c-13,10.7-15.2,29.8-4.9,43.2
		c7.1,9.2,18.3,13.3,29.1,11.8c-1.7,0.9-3.3,1.9-4.8,3.1c-8.6,6.6-13.1,16.5-13.3,26.6c-11.3-12.4-30.4-14.2-43.8-3.8
		c-14.2,11-16.8,31.3-5.8,45.5c5.4,6.9,13,11.1,21,12.3c-5.4,4.8-9,10.9-10.9,17.5c-7.1-5.5-15.8-8.2-24.5-7.8
		c10.7-10.5,12-27.5,2.7-39.6c-10.1-13.1-28.9-15.5-42-5.4c-13.1,10.1-15.5,28.9-5.4,42c5.6,7.3,13.9,11.2,22.4,11.6
		c-7.2,6-11.6,14.1-13,22.7c-8.3-6.5-18.9-9.1-29.1-7.5c0.4-0.3,0.8-0.6,1.2-0.9c12.1-9.4,14.4-26.9,5-39c-9.4-12.1-26.9-14.4-39-5
		c-12.2,9.4-14.4,26.9-5,39c6.1,7.9,15.5,11.6,24.7,10.7c-1.3,0.8-2.5,1.6-3.7,2.5c-8.9,6.9-13.9,17.1-14.4,27.6
		c-11.5-12.3-30.7-14-44.3-3.5c-8.6,6.6-13,16.6-12.8,26.7c-11.3-13.6-31.5-15.9-45.6-5c-9.7,7.5-14.1,19.3-12.6,30.6
		c-0.6-1-1.3-2-2.1-3c-10.6-13.8-30.4-16.3-44.2-5.7c-10.3,7.9-14.3,21-11.3,32.8c-0.9-1.7-1.9-3.3-3.1-4.8
		c-10.6-13.8-30.4-16.3-44.2-5.7c-13.8,10.6-16.3,30.4-5.7,44.2c6.4,8.3,16.2,12.5,26,12.2c-0.6,0.4-1.1,0.8-1.6,1.2
		c-7.9,6.1-12.3,14.9-13.1,24.1c-7.6-8.2-18.4-11.9-28.9-10.8c0.1-0.1,0.2-0.2,0.3-0.2c13.3-10.3,15.7-29.4,5.5-42.6
		c-10.3-13.3-29.4-15.7-42.6-5.5c-6.3,4.9-10.2,11.8-11.4,19.1c-5.7-6.8-13.3-11-21.5-12.6c5.1-6.8,7.5-15.1,7.1-23.4
		c10.5,12.4,29,14.4,42,4.4c13.4-10.3,15.8-29.6,5.5-42.9c-6.2-8.1-15.7-12.2-25.2-11.9c0.1-0.1,0.3-0.2,0.4-0.3
		c8.6-6.6,13.1-16.5,13.3-26.5c8.9,10,22.5,13.7,34.8,10.3c-2,0.9-4,2.1-5.9,3.5c-12.8,9.9-15.2,28.3-5.3,41.2
		c9.9,12.8,28.3,15.2,41.2,5.3c12.8-9.9,15.2-28.3,5.3-41.2c-7.5-9.7-19.8-13.4-30.8-10.4c2.5-1.1,4.9-2.5,7.2-4.3
		c9.6-7.4,14.1-18.9,13.1-30.1c0.2,0.2,0.4,0.5,0.5,0.7c10.8,13.9,30.8,16.5,44.7,5.7c13.9-10.8,16.5-30.8,5.7-44.7
		c-3.5-4.5-7.9-7.8-12.9-9.9c2.9-3.6,5.1-7.6,6.7-11.9c4.1,2.4,8.5,4,13,4.9c-5,9.9-4.3,22.2,3,31.6
		C446.4,218.2,465.1,220.6,478.1,210.5L478.1,210.5z M464.5,263c8,10.4,23,12.3,33.4,4.3c10.4-8,12.3-23,4.3-33.4
		c-8-10.4-23-12.3-33.4-4.3C458.4,237.6,456.5,252.6,464.5,263L464.5,263z M522.4,241.2c8,10.4,23,12.3,33.4,4.3
		c10.4-8,12.3-23,4.3-33.4c-8-10.4-23-12.3-33.4-4.3C516.2,215.8,514.3,230.8,522.4,241.2L522.4,241.2z M537.9,188.9
		c11.8-9.1,13.9-26,4.8-37.8c-9.1-11.8-26-14-37.8-4.8c-11.8,9.1-14,26-4.8,37.8C509.2,195.8,526.1,198,537.9,188.9L537.9,188.9z
		 M558.8,162.6c9.1,11.8,26,13.9,37.8,4.8c11.8-9.1,13.9-26,4.8-37.8c-9.1-11.8-26-14-37.8-4.8C551.8,133.9,549.7,150.9,558.8,162.6
		L558.8,162.6z M618.2,140.2c9.4,12.1,26.9,14.4,39,5c12.1-9.4,14.4-26.9,5-39c-9.4-12.2-26.9-14.4-39-5
		C611.1,110.5,608.8,128,618.2,140.2L618.2,140.2z M677.2,119.8c9.7,12.5,27.7,14.9,40.3,5.2c12.5-9.7,14.8-27.7,5.2-40.3
		c-9.7-12.5-27.7-14.9-40.3-5.2C669.8,89.2,667.5,107.2,677.2,119.8L677.2,119.8z M760.3,49.5c5.6,0.2,11,1.8,15.8,4.8
		c0.9-4.4,2.6-8.6,5-12.5c-3.6-0.8-7.2-2.2-10.5-3.9c-2.3,4.2-5.5,8-9.6,11.1C760.8,49.1,760.6,49.3,760.3,49.5L760.3,49.5z
		 M774.5,107.9c5.4-0.9,10.9-0.4,16.1,1.3V92.4c-0.6-0.4-1.2-0.9-1.7-1.4c-1.9,5.5-5.4,10.5-10.3,14.3
		C777.2,106.3,775.9,107.2,774.5,107.9L774.5,107.9z M451.1,421.5c-4.2-1.5-8.1-3.8-11.5-6.8c-0.6,5.4-2.6,10.6-5.7,15.1
		c3.6,0.8,7.1,2.2,10.3,4.1C445.6,429.5,448,425.2,451.1,421.5L451.1,421.5z M390.8,441.3c-3.7-1.8-7.1-4.3-10-7.4
		c-0.2,2.5-0.7,5-1.4,7.4H390.8L390.8,441.3z M326.7,402.9c-8.6,0.6-17.3-2.4-23.7-8.7c-0.4,6-2.3,11.8-5.5,17
		c6.1,0.9,12,3.2,17.1,6.8c2.2-5.4,5.8-10.3,10.8-14.2C325.9,403.5,326.3,403.2,326.7,402.9L326.7,402.9z M427,383.9
		c0.7-9,4.7-17.7,11.8-24.2c-7.6-1.3-14.7-5.3-19.7-11.8c-1.2-1.5-2.2-3.2-3.1-4.8c3,11.8-1,24.9-11.2,32.8
		c-0.3,0.2-0.6,0.5-0.9,0.7C412,376.1,420.3,378.6,427,383.9L427,383.9z M485.9,357.2c1.2-6.4,3.9-12.5,8.1-17.7
		c-6.3-1.9-12.1-5.8-16.4-11.4c-0.9-1.1-1.6-2.2-2.3-3.4c1.1,9-1.7,18.4-8.2,25.3C473.8,350.6,480.3,353.1,485.9,357.2L485.9,357.2z
		 M551,317.4c-5.4-1.9-10.3-5.2-14.2-9.9c0.1,6.4-1.7,12.7-5.1,18.2c4.5,0.8,8.9,2.5,12.9,4.9C545.9,325.8,548,321.4,551,317.4
		L551,317.4z M608,299.4c-4.8-2.2-9.3-5.5-12.9-9.8c-0.4,4.2-1.7,8.4-3.7,12.2c4.5,0.9,8.8,2.5,12.7,4.9
		C605.1,304.2,606.4,301.7,608,299.4L608,299.4z M663.3,284.5c1.1-2.9,2.6-5.8,4.4-8.5c-2.6-1.2-5.1-2.7-7.4-4.5
		c-0.6,3.6-1.7,7.1-3.3,10.5C659.2,282.6,661.3,283.5,663.3,284.5L663.3,284.5z M729.2,257.9c-3.5-1.3-6.9-3.2-10-5.5
		c-0.6,2.3-1.5,4.4-2.6,6.6c3.2,1,6.4,2.4,9.3,4.2C727,261.4,728,259.6,729.2,257.9L729.2,257.9z M787.7,237.1
		c-3.3-1.2-6.5-2.8-9.5-4.9c-0.8,3-1.9,6-3.5,8.8c3.1,0.8,6.1,1.9,9,3.3C784.9,241.8,786.2,239.4,787.7,237.1L787.7,237.1z
		 M773.7,175.2c-7.3-1.4-14.2-5.1-19.4-11.1c-0.3,7.9-3.4,15.6-9.2,21.6c6.7,0.5,13.2,2.8,18.8,6.8
		C765.4,186.1,768.7,180.1,773.7,175.2L773.7,175.2z M689-0.4c-2.2,4.1-5.3,7.7-9.2,10.8c-1.5,1.1-3,2.1-4.5,3
		c9.9-1,20.2,3,26.7,11.5c0.1,0.2,0.3,0.4,0.4,0.5c-1.2-8.1,0.3-16.4,4.4-23.6c-2.3-0.5-4.5-1.3-6.7-2.2H689L689-0.4z M563-0.4
		l0.5,0.4l0.1-0.4H563L563-0.4z M512.9,71.2c4.9,1.7,9.5,4.3,13.4,8c1.1-5.5,3.7-10.6,7.5-15c-5.5-0.8-10.9-2.8-15.6-6.1
		C517.3,62.8,515.5,67.2,512.9,71.2L512.9,71.2z M350.1,198.7c7.1,1.8,13.7,5.9,18.6,12.2c0.3,0.4,0.6,0.9,0.9,1.3
		c-0.4-5.9,0.8-11.9,3.6-17.2c-5.8-1.2-11.4-3.7-16.3-7.4C355.3,191.6,353,195.4,350.1,198.7L350.1,198.7z M287.9,220.3
		c7.4,1.3,14.3,5,19.6,11c0.1-6.7,2.1-13.2,6-18.8c-5.6-0.8-11.1-2.7-16-5.7C295.3,211.8,292.1,216.4,287.9,220.3L287.9,220.3z
		 M237.6,239.1c4.1,1.1,7.9,2.9,11.4,5.5c1.4-4.8,3.8-9.4,7.3-13.3c-4.6-0.4-9.1-1.5-13.4-3.4C241.7,231.8,240,235.6,237.6,239.1
		L237.6,239.1z M236.8,368.7c-3.5-0.7-6.9-2-10.1-3.8c-0.5,3.2-1.4,6.4-2.7,9.4c2.6,0.9,5.1,2.1,7.5,3.7
		C232.8,374.7,234.6,371.5,236.8,368.7z"/>
</g>
</svg>
